<?xml version="1.0" encoding="utf-8"?>
<!-- Generator: Adobe Illustrator 27.5.0, SVG Export Plug-In . SVG Version: 6.00 Build 0)  -->
<svg version="1.1" xmlns="http://www.w3.org/2000/svg" xmlns:xlink="http://www.w3.org/1999/xlink" x="0px" y="0px"
	 viewBox="0 0 500 500" style="enable-background:new 0 0 500 500;" xml:space="preserve">
<g id="BACKGROUND">
	<rect style="fill:#ffffff00;" width="500" height="500"/>
	<g>
		<g>
			<g>
				<path style="fill:#D1D3D4;" d="M250,347.315c-53.659,0-97.315-43.655-97.315-97.315s43.655-97.314,97.315-97.314
					s97.315,43.655,97.315,97.314S303.659,347.315,250,347.315z M250,154.686c-52.557,0-95.315,42.758-95.315,95.314
					s42.758,95.315,95.315,95.315s95.315-42.758,95.315-95.315S302.557,154.686,250,154.686z"/>
			</g>
			<g>
				<path style="fill:#D1D3D4;" d="M250,132.882c-26.204,0-47.523-21.318-47.523-47.522S223.796,37.838,250,37.838
					c26.204,0,47.522,21.318,47.522,47.522S276.204,132.882,250,132.882z M250,39.838c-25.102,0-45.523,20.421-45.523,45.522
					c0,25.101,20.421,45.522,45.523,45.522c25.102,0,45.522-20.421,45.522-45.522C295.522,60.259,275.102,39.838,250,39.838z"/>
			</g>
			<g>
				<rect x="249" y="131.882" style="fill:#D1D3D4;" width="2" height="21.804"/>
			</g>
			<g>
				<path style="fill:#D1D3D4;" d="M133.581,181.081c-12.169,0-24.338-4.632-33.602-13.896c-18.529-18.529-18.529-48.677,0-67.206
					c18.529-18.53,48.677-18.529,67.206,0c18.529,18.529,18.529,48.677,0,67.206C157.92,176.45,145.751,181.081,133.581,181.081z
					 M133.581,88.06c-12.159,0-23.59,4.735-32.188,13.333c-8.598,8.598-13.333,20.03-13.333,32.189
					c0,12.159,4.735,23.591,13.333,32.189c8.598,8.598,20.029,13.333,32.188,13.333c12.16,0,23.591-4.735,32.189-13.333
					c8.598-8.598,13.333-20.03,13.333-32.189c0-12.159-4.735-23.591-13.333-32.189C157.173,92.795,145.741,88.06,133.581,88.06z"/>
			</g>
			<g>

					<rect x="173.187" y="163.285" transform="matrix(0.7071 -0.7071 0.7071 0.7071 -72.1506 174.1914)" style="fill:#D1D3D4;" width="2" height="21.804"/>
			</g>
			<g>
				<path style="fill:#D1D3D4;" d="M85.36,297.522c-26.204,0-47.522-21.318-47.522-47.522c0-26.204,21.318-47.522,47.522-47.522
					s47.522,21.318,47.522,47.522C132.882,276.204,111.563,297.522,85.36,297.522z M85.36,204.478
					c-25.101,0-45.522,20.421-45.522,45.522c0,25.102,20.421,45.522,45.522,45.522c25.101,0,45.522-20.421,45.522-45.522
					C130.882,224.899,110.461,204.478,85.36,204.478z"/>
			</g>
			<g>
				<rect x="131.882" y="249" style="fill:#D1D3D4;" width="21.804" height="2"/>
			</g>
			<g>
				<path style="fill:#D1D3D4;" d="M133.581,413.918c-12.169,0-24.338-4.632-33.602-13.896c-18.529-18.528-18.529-48.678,0-67.206
					c18.529-18.53,48.677-18.528,67.206,0c18.529,18.528,18.529,48.678,0,67.206C157.92,409.286,145.751,413.918,133.581,413.918z
					 M133.581,320.897c-12.159,0-23.59,4.735-32.188,13.333c-8.598,8.598-13.333,20.029-13.333,32.189
					c0,12.159,4.735,23.591,13.333,32.188c8.598,8.598,20.029,13.333,32.188,13.333c12.16,0,23.591-4.735,32.189-13.333
					c8.598-8.598,13.333-20.029,13.333-32.188c0-12.16-4.735-23.592-13.333-32.189C157.173,325.632,145.741,320.897,133.581,320.897
					z"/>
			</g>
			<g>

					<rect x="163.284" y="324.814" transform="matrix(0.7071 -0.7071 0.7071 0.7071 -179.3669 218.597)" style="fill:#D1D3D4;" width="21.804" height="2"/>
			</g>
			<g>
				<path style="fill:#D1D3D4;" d="M250,462.162c-26.204,0-47.523-21.318-47.523-47.523c0-26.203,21.318-47.521,47.523-47.521
					c26.204,0,47.522,21.318,47.522,47.521C297.522,440.844,276.204,462.162,250,462.162z M250,369.118
					c-25.102,0-45.523,20.421-45.523,45.521c0,25.102,20.421,45.523,45.523,45.523c25.102,0,45.522-20.421,45.522-45.523
					C295.522,389.539,275.102,369.118,250,369.118z"/>
			</g>
			<g>
				<rect x="249" y="346.315" style="fill:#D1D3D4;" width="2" height="21.804"/>
			</g>
			<g>
				<path style="fill:#D1D3D4;" d="M366.419,413.918c-12.17,0-24.339-4.632-33.604-13.896c-18.529-18.528-18.529-48.678,0-67.206
					c18.528-18.528,48.676-18.529,67.206,0c18.529,18.528,18.529,48.678,0,67.206C390.757,409.286,378.588,413.918,366.419,413.918z
					 M366.419,320.897c-12.16,0-23.592,4.735-32.189,13.333c-8.598,8.598-13.333,20.029-13.333,32.189
					c0,12.159,4.735,23.591,13.333,32.188c8.598,8.598,20.029,13.333,32.189,13.333c12.159,0,23.591-4.735,32.188-13.333
					c8.598-8.598,13.333-20.029,13.333-32.188c0-12.16-4.735-23.592-13.333-32.189C390.01,325.632,378.578,320.897,366.419,320.897z
					"/>
			</g>
			<g>

					<rect x="324.814" y="314.911" transform="matrix(0.7071 -0.7071 0.7071 0.7071 -134.9564 325.8123)" style="fill:#D1D3D4;" width="2" height="21.804"/>
			</g>
			<g>
				<path style="fill:#D1D3D4;" d="M414.64,297.522c-26.203,0-47.521-21.318-47.521-47.522c0-26.204,21.318-47.522,47.521-47.522
					c26.204,0,47.523,21.318,47.523,47.522C462.162,276.204,440.844,297.522,414.64,297.522z M414.64,204.478
					c-25.1,0-45.521,20.421-45.521,45.522c0,25.102,20.421,45.522,45.521,45.522c25.102,0,45.523-20.421,45.523-45.522
					C460.162,224.899,439.741,204.478,414.64,204.478z"/>
			</g>
			<g>
				<rect x="346.315" y="249" style="fill:#D1D3D4;" width="21.804" height="2"/>
			</g>
			<g>
				<path style="fill:#D1D3D4;" d="M366.419,181.081c-12.17,0-24.339-4.632-33.604-13.896c-18.529-18.529-18.529-48.677,0-67.206
					c18.528-18.528,48.676-18.53,67.206,0c18.529,18.529,18.529,48.677,0,67.206C390.757,176.45,378.588,181.081,366.419,181.081z
					 M366.419,88.06c-12.16,0-23.592,4.735-32.189,13.333c-8.598,8.598-13.333,20.03-13.333,32.189
					c0,12.159,4.735,23.591,13.333,32.189c8.598,8.598,20.029,13.333,32.189,13.333c12.159,0,23.591-4.735,32.188-13.333
					c17.749-17.749,17.749-46.629,0-64.378C390.01,92.795,378.578,88.06,366.419,88.06z"/>
			</g>
			<g>

					<rect x="314.911" y="173.187" transform="matrix(0.7071 -0.7071 0.7071 0.7071 -27.7401 281.403)" style="fill:#D1D3D4;" width="21.804" height="2"/>
			</g>
		</g>
		<g>
			<path style="fill:#D1D3D4;" d="M250,334.022c-46.33,0-84.023-37.692-84.023-84.022S203.67,165.978,250,165.978
				S334.022,203.67,334.022,250S296.33,334.022,250,334.022z M250,166.978c-45.778,0-83.023,37.244-83.023,83.022
				s37.244,83.022,83.023,83.022s83.022-37.244,83.022-83.022S295.778,166.978,250,166.978z"/>
		</g>
		<g>
			<g>
				<g>
					<polygon style="fill:#D1D3D4;" points="345.869,91.851 334.662,69.79 288.413,59.755 288.626,58.777 335.338,68.914
						346.76,91.397 					"/>
				</g>
				<g>
					<polygon style="fill:#D1D3D4;" points="324.183,153.907 289.573,143.07 289.906,142.524 334.779,68.753 430.846,100.438
						412.137,123.446 411.361,122.815 429.154,100.934 335.221,69.951 291.093,142.498 324.481,152.953 					"/>
				</g>
				<g>
					<polygon style="fill:#D1D3D4;" points="297.519,166.632 289.824,142.836 289.836,142.73 295.049,94.824 296.043,94.932
						290.842,142.731 298.471,166.324 					"/>
				</g>
				<g>

						<rect x="398.122" y="121.235" transform="matrix(0.3925 -0.9198 0.9198 0.3925 143.7997 461.1804)" style="fill:#D1D3D4;" width="45.776" height="1"/>
				</g>
				<g>
					<polygon style="fill:#D1D3D4;" points="334.502,69.395 333.065,52.519 284.368,54.486 284.327,53.487 333.98,51.481
						335.498,69.31 					"/>
				</g>
				<g>

						<rect x="358.028" y="38.621" transform="matrix(0.5549 -0.8319 0.8319 0.5549 102.4398 328.8302)" style="fill:#D1D3D4;" width="1" height="60.117"/>
				</g>
				<g>
					<polygon style="fill:#D1D3D4;" points="442.274,213.19 399.583,167.498 388.904,211.69 387.932,211.455 399.046,165.458
						443.005,212.508 					"/>
				</g>
				<g>
					<polygon style="fill:#D1D3D4;" points="367.936,246.707 342.418,224.89 347.795,176.374 348.789,176.485 343.471,224.474
						368.587,245.947 					"/>
				</g>
				<g>

						<rect x="330.616" y="195.08" transform="matrix(0.6953 -0.7187 0.7187 0.6953 -27.4857 326.3257)" style="fill:#D1D3D4;" width="81.026" height="1"/>
				</g>
				<g>
					<polygon style="fill:#D1D3D4;" points="413.401,368.186 412.411,368.05 420.44,310.07 335.804,294.103 335.989,293.121
						421.56,309.264 					"/>
				</g>
				<g>
					<polygon style="fill:#D1D3D4;" points="323.235,323.662 323.099,322.672 420.76,309.195 442.279,286.804 443,287.497
						421.24,310.139 421.068,310.162 					"/>
				</g>
				<g>

						<rect x="358.518" y="246.242" transform="matrix(0.4908 -0.8713 0.8713 0.4908 -44.4258 445.6336)" style="fill:#D1D3D4;" width="1" height="29.16"/>
				</g>
				<g>
					<polygon style="fill:#D1D3D4;" points="295.543,424.876 295.451,423.88 334.73,420.245 256.434,348.091 265.744,370.508
						264.82,370.891 253.764,344.271 337.063,421.034 					"/>
				</g>
				<g>
					<polygon style="fill:#D1D3D4;" points="308.655,360.897 264.585,345.665 264.911,344.72 307.345,359.385 301.844,330.96
						302.826,330.771 					"/>
				</g>
				<g>
					<polygon style="fill:#D1D3D4;" points="335.881,422.191 324.611,387.945 325.56,387.633 335.912,419.088 340.743,405.356
						341.686,405.689 					"/>
				</g>
				<g>
					<polygon style="fill:#D1D3D4;" points="319.797,363.061 307.9,360.631 308.1,359.65 319.996,362.081 					"/>
				</g>
			</g>
			<g>
				<circle style="fill:#ffffff00;" cx="333.522" cy="52" r="2.375"/>
				<path style="fill:#D1D3D4;" d="M333.522,54.875c-1.585,0-2.875-1.29-2.875-2.875s1.29-2.875,2.875-2.875
					c1.585,0,2.875,1.29,2.875,2.875S335.107,54.875,333.522,54.875z M333.522,50.125c-1.034,0-1.875,0.841-1.875,1.875
					s0.841,1.875,1.875,1.875c1.034,0,1.875-0.841,1.875-1.875S334.557,50.125,333.522,50.125z"/>
			</g>
			<g>
				<circle style="fill:#ffffff00;" cx="392.793" cy="64.593" r="2.375"/>
				<path style="fill:#D1D3D4;" d="M392.793,67.468c-1.585,0-2.875-1.29-2.875-2.875c0-1.585,1.29-2.875,2.875-2.875
					c1.585,0,2.875,1.29,2.875,2.875C395.668,66.178,394.378,67.468,392.793,67.468z M392.793,62.718
					c-1.034,0-1.875,0.841-1.875,1.875c0,1.034,0.841,1.875,1.875,1.875c1.034,0,1.875-0.841,1.875-1.875
					C394.668,63.559,393.827,62.718,392.793,62.718z"/>
			</g>
			<g>
				<circle style="fill:#ffffff00;" cx="281.973" cy="42.667" r="2.375"/>
				<path style="fill:#D1D3D4;" d="M281.973,45.542c-1.585,0-2.875-1.29-2.875-2.875c0-1.585,1.29-2.875,2.875-2.875
					c1.585,0,2.875,1.29,2.875,2.875C284.848,44.252,283.558,45.542,281.973,45.542z M281.973,40.792
					c-1.034,0-1.875,0.841-1.875,1.875s0.841,1.875,1.875,1.875c1.034,0,1.875-0.841,1.875-1.875S283.007,40.792,281.973,40.792z"/>
			</g>
			<g>
				<circle style="fill:#ffffff00;" cx="441.015" cy="158.493" r="2.375"/>
				<path style="fill:#D1D3D4;" d="M441.015,161.368c-1.585,0-2.875-1.29-2.875-2.875c0-1.586,1.29-2.875,2.875-2.875
					c1.585,0,2.875,1.289,2.875,2.875C443.89,160.078,442.6,161.368,441.015,161.368z M441.015,156.618
					c-1.034,0-1.875,0.841-1.875,1.875c0,1.034,0.841,1.875,1.875,1.875c1.034,0,1.875-0.841,1.875-1.875
					C442.89,157.459,442.049,156.618,441.015,156.618z"/>
			</g>
			<g>
				<circle style="fill:#ffffff00;" cx="418.068" cy="161.582" r="2.375"/>
				<path style="fill:#D1D3D4;" d="M418.068,164.457c-1.586,0-2.876-1.29-2.876-2.875c0-1.585,1.29-2.875,2.876-2.875
					c1.585,0,2.875,1.29,2.875,2.875C420.943,163.167,419.653,164.457,418.068,164.457z M418.068,159.707
					c-1.034,0-1.876,0.841-1.876,1.875s0.842,1.875,1.876,1.875c1.034,0,1.875-0.841,1.875-1.875S419.103,159.707,418.068,159.707z"
					/>
			</g>
			<g>
				<circle style="fill:#ffffff00;" cx="434.63" cy="171.812" r="2.375"/>
				<path style="fill:#D1D3D4;" d="M434.631,174.686c-1.585,0-2.875-1.289-2.875-2.875c0-1.585,1.29-2.875,2.875-2.875
					c1.585,0,2.875,1.29,2.875,2.875C437.506,173.397,436.216,174.686,434.631,174.686z M434.631,169.936
					c-1.034,0-1.875,0.841-1.875,1.875c0,1.034,0.841,1.875,1.875,1.875c1.034,0,1.875-0.841,1.875-1.875
					C436.506,170.778,435.665,169.936,434.631,169.936z"/>
			</g>
			<g>
				<circle style="fill:#ffffff00;" cx="427.625" cy="323.167" r="2.375"/>
				<path style="fill:#D1D3D4;" d="M427.625,326.042c-1.585,0-2.875-1.29-2.875-2.875c0-1.585,1.29-2.875,2.875-2.875
					s2.875,1.29,2.875,2.875C430.5,324.752,429.21,326.042,427.625,326.042z M427.625,321.292c-1.034,0-1.875,0.841-1.875,1.875
					c0,1.034,0.841,1.875,1.875,1.875s1.875-0.841,1.875-1.875C429.5,322.133,428.659,321.292,427.625,321.292z"/>
			</g>
			<g>
				<circle style="fill:#ffffff00;" cx="352.793" cy="287.625" r="2.375"/>
				<path style="fill:#D1D3D4;" d="M352.793,290.5c-1.585,0-2.875-1.29-2.875-2.875s1.29-2.875,2.875-2.875
					c1.585,0,2.875,1.29,2.875,2.875S354.378,290.5,352.793,290.5z M352.793,285.75c-1.034,0-1.875,0.841-1.875,1.875
					s0.841,1.875,1.875,1.875c1.034,0,1.875-0.841,1.875-1.875S353.827,285.75,352.793,285.75z"/>
			</g>
			<g>
				<circle style="fill:#ffffff00;" cx="382.418" cy="417.64" r="2.375"/>
				<path style="fill:#D1D3D4;" d="M382.418,420.515c-1.585,0-2.875-1.29-2.875-2.875c0-1.585,1.29-2.875,2.875-2.875
					c1.585,0,2.875,1.29,2.875,2.875C385.293,419.225,384.003,420.515,382.418,420.515z M382.418,415.765
					c-1.034,0-1.875,0.841-1.875,1.875c0,1.034,0.841,1.875,1.875,1.875c1.034,0,1.875-0.841,1.875-1.875
					C384.293,416.605,383.452,415.765,382.418,415.765z"/>
			</g>
			<g>
				<circle style="fill:#ffffff00;" cx="308" cy="433.015" r="2.375"/>
				<path style="fill:#D1D3D4;" d="M308,435.89c-1.585,0-2.875-1.29-2.875-2.875c0-1.585,1.29-2.875,2.875-2.875
					s2.875,1.29,2.875,2.875C310.875,434.6,309.585,435.89,308,435.89z M308,431.14c-1.034,0-1.875,0.841-1.875,1.875
					c0,1.034,0.841,1.875,1.875,1.875c1.034,0,1.875-0.841,1.875-1.875C309.875,431.98,309.034,431.14,308,431.14z"/>
			</g>
			<g>
				<circle style="fill:#ffffff00;" cx="319.896" cy="444.64" r="2.375"/>
				<path style="fill:#D1D3D4;" d="M319.896,447.515c-1.585,0-2.875-1.29-2.875-2.875c0-1.585,1.29-2.875,2.875-2.875
					c1.585,0,2.875,1.29,2.875,2.875C322.771,446.225,321.481,447.515,319.896,447.515z M319.896,442.765
					c-1.034,0-1.875,0.841-1.875,1.875c0,1.034,0.841,1.875,1.875,1.875c1.034,0,1.875-0.841,1.875-1.875
					C321.771,443.605,320.931,442.765,319.896,442.765z"/>
			</g>
			<g>
				<circle style="fill:#ffffff00;" cx="298.062" cy="438.64" r="2.375"/>
				<path style="fill:#D1D3D4;" d="M298.061,441.515c-1.585,0-2.875-1.29-2.875-2.875c0-1.585,1.29-2.875,2.875-2.875
					c1.585,0,2.875,1.29,2.875,2.875C300.936,440.225,299.646,441.515,298.061,441.515z M298.061,436.765
					c-1.034,0-1.875,0.841-1.875,1.875c0,1.034,0.841,1.875,1.875,1.875c1.034,0,1.875-0.841,1.875-1.875
					C299.936,437.605,299.096,436.765,298.061,436.765z"/>
			</g>
			<g>
				<circle style="fill:#ffffff00;" cx="318.105" cy="338.746" r="2.375"/>
				<path style="fill:#D1D3D4;" d="M318.104,341.621c-1.585,0-2.875-1.29-2.875-2.875s1.29-2.875,2.875-2.875
					c1.585,0,2.875,1.29,2.875,2.875S319.689,341.621,318.104,341.621z M318.104,336.871c-1.034,0-1.875,0.841-1.875,1.875
					c0,1.034,0.841,1.875,1.875,1.875c1.034,0,1.875-0.841,1.875-1.875C319.979,337.712,319.139,336.871,318.104,336.871z"/>
			</g>
			<g>
				<circle style="fill:#ffffff00;" cx="374.793" cy="290" r="2.375"/>
				<path style="fill:#D1D3D4;" d="M374.793,292.875c-1.585,0-2.875-1.29-2.875-2.875s1.29-2.875,2.875-2.875
					c1.585,0,2.875,1.29,2.875,2.875S376.378,292.875,374.793,292.875z M374.793,288.125c-1.034,0-1.875,0.841-1.875,1.875
					s0.841,1.875,1.875,1.875c1.034,0,1.875-0.841,1.875-1.875S375.827,288.125,374.793,288.125z"/>
			</g>
			<g>
				<circle style="fill:#ffffff00;" cx="266.003" cy="142.784" r="2.375"/>
				<path style="fill:#D1D3D4;" d="M266.003,145.659c-1.585,0-2.875-1.29-2.875-2.875c0-1.586,1.29-2.875,2.875-2.875
					c1.585,0,2.875,1.289,2.875,2.875C268.878,144.369,267.588,145.659,266.003,145.659z M266.003,140.909
					c-1.034,0-1.875,0.841-1.875,1.875c0,1.034,0.841,1.875,1.875,1.875c1.034,0,1.875-0.841,1.875-1.875
					C267.878,141.75,267.037,140.909,266.003,140.909z"/>
			</g>
			<g>
				<circle style="fill:#ffffff00;" cx="366.418" cy="222.307" r="2.375"/>
				<path style="fill:#D1D3D4;" d="M366.418,225.182c-1.585,0-2.875-1.289-2.875-2.875c0-1.585,1.29-2.875,2.875-2.875
					c1.585,0,2.875,1.29,2.875,2.875C369.293,223.892,368.003,225.182,366.418,225.182z M366.418,220.432
					c-1.034,0-1.875,0.841-1.875,1.875c0,1.034,0.841,1.875,1.875,1.875c1.034,0,1.875-0.841,1.875-1.875
					C368.293,221.273,367.452,220.432,366.418,220.432z"/>
			</g>
			<g>
				<circle style="fill:#ffffff00;" cx="388.418" cy="77.861" r="2.375"/>
				<path style="fill:#D1D3D4;" d="M388.418,80.736c-1.585,0-2.875-1.29-2.875-2.875c0-1.585,1.29-2.875,2.875-2.875
					c1.585,0,2.875,1.29,2.875,2.875C391.293,79.446,390.003,80.736,388.418,80.736z M388.418,75.986
					c-1.034,0-1.875,0.841-1.875,1.875s0.841,1.875,1.875,1.875c1.034,0,1.875-0.841,1.875-1.875S389.452,75.986,388.418,75.986z"/>
			</g>
			<g>
				<circle style="fill:#ffffff00;" cx="335" cy="69.352" r="2.375"/>
				<path style="fill:#D1D3D4;" d="M335,72.227c-1.585,0-2.875-1.29-2.875-2.875c0-1.585,1.29-2.875,2.875-2.875
					s2.875,1.29,2.875,2.875C337.875,70.938,336.585,72.227,335,72.227z M335,67.477c-1.034,0-1.875,0.841-1.875,1.875
					c0,1.034,0.841,1.875,1.875,1.875s1.875-0.841,1.875-1.875C336.875,68.318,336.034,67.477,335,67.477z"/>
			</g>
			<g>
				<circle style="fill:#ffffff00;" cx="430" cy="100.686" r="2.375"/>
				<path style="fill:#D1D3D4;" d="M430,103.561c-1.585,0-2.875-1.289-2.875-2.875c0-1.585,1.29-2.875,2.875-2.875
					s2.875,1.29,2.875,2.875C432.875,102.271,431.585,103.561,430,103.561z M430,98.811c-1.034,0-1.875,0.841-1.875,1.875
					c0,1.034,0.841,1.875,1.875,1.875s1.875-0.841,1.875-1.875C431.875,99.652,431.034,98.811,430,98.811z"/>
			</g>
			<g>
				<circle style="fill:#ffffff00;" cx="421" cy="309.667" r="2.375"/>
				<path style="fill:#D1D3D4;" d="M421,312.542c-1.585,0-2.875-1.29-2.875-2.875c0-1.585,1.29-2.875,2.875-2.875
					s2.875,1.29,2.875,2.875C423.875,311.252,422.585,312.542,421,312.542z M421,307.792c-1.034,0-1.875,0.841-1.875,1.875
					c0,1.034,0.841,1.875,1.875,1.875s1.875-0.841,1.875-1.875C422.875,308.633,422.034,307.792,421,307.792z"/>
			</g>
			<g>
				<circle style="fill:#ffffff00;" cx="335.896" cy="420.64" r="2.375"/>
				<path style="fill:#D1D3D4;" d="M335.897,423.515c-1.585,0-2.875-1.29-2.875-2.875c0-1.585,1.29-2.875,2.875-2.875
					c1.585,0,2.875,1.29,2.875,2.875C338.772,422.225,337.481,423.515,335.897,423.515z M335.897,418.765
					c-1.034,0-1.875,0.841-1.875,1.875c0,1.034,0.841,1.875,1.875,1.875c1.034,0,1.875-0.841,1.875-1.875
					C337.772,419.605,336.931,418.765,335.897,418.765z"/>
			</g>
			<g>
				<circle style="fill:#ffffff00;" cx="308" cy="360.141" r="2.375"/>
				<path style="fill:#D1D3D4;" d="M308,363.016c-1.585,0-2.875-1.29-2.875-2.875c0-1.585,1.29-2.875,2.875-2.875
					s2.875,1.29,2.875,2.875C310.875,361.726,309.585,363.016,308,363.016z M308,358.266c-1.034,0-1.875,0.841-1.875,1.875
					c0,1.034,0.841,1.875,1.875,1.875c1.034,0,1.875-0.841,1.875-1.875C309.875,359.106,309.034,358.266,308,358.266z"/>
			</g>
			<g>
				<circle style="fill:#ffffff00;" cx="290.333" cy="142.784" r="2.375"/>
				<path style="fill:#D1D3D4;" d="M290.333,145.659c-1.585,0-2.875-1.29-2.875-2.875c0-1.586,1.29-2.875,2.875-2.875
					c1.585,0,2.875,1.289,2.875,2.875C293.208,144.369,291.918,145.659,290.333,145.659z M290.333,140.909
					c-1.034,0-1.875,0.841-1.875,1.875c0,1.034,0.841,1.875,1.875,1.875c1.034,0,1.875-0.841,1.875-1.875
					C292.208,141.75,291.367,140.909,290.333,140.909z"/>
			</g>
		</g>
		<g>
			<g>
				<g>
					<polygon style="fill:#D1D3D4;" points="154.42,91.851 153.529,91.397 164.951,68.914 211.664,58.777 211.877,59.755
						165.627,69.79 					"/>
				</g>
				<g>
					<polygon style="fill:#D1D3D4;" points="176.106,153.907 175.808,152.953 209.196,142.498 165.068,69.951 71.135,100.934
						88.928,122.815 88.153,123.446 69.443,100.438 165.51,68.753 165.716,69.092 210.716,143.07 					"/>
				</g>
				<g>
					<polygon style="fill:#D1D3D4;" points="202.769,166.632 201.818,166.324 209.447,142.731 204.246,94.932 205.24,94.824
						210.465,142.836 210.432,142.938 					"/>
				</g>
				<g>

						<rect x="78.779" y="98.847" transform="matrix(0.9196 -0.3928 0.3928 0.9196 -41.4425 40.9211)" style="fill:#D1D3D4;" width="1" height="45.776"/>
				</g>
				<g>
					<polygon style="fill:#D1D3D4;" points="165.787,69.395 164.791,69.31 166.31,51.481 215.962,53.487 215.921,54.486
						167.226,52.519 					"/>
				</g>
				<g>

						<rect x="111.703" y="68.18" transform="matrix(0.8321 -0.5547 0.5547 0.8321 -14.2889 90.163)" style="fill:#D1D3D4;" width="60.117" height="1"/>
				</g>
				<g>
					<polygon style="fill:#D1D3D4;" points="58.014,213.19 57.284,212.508 101.243,165.458 112.357,211.456 111.385,211.69
						100.707,167.498 					"/>
				</g>
				<g>
					<polygon style="fill:#D1D3D4;" points="132.352,246.707 131.703,245.947 156.818,224.474 151.5,176.485 152.494,176.374
						157.871,224.89 					"/>
				</g>
				<g>

						<rect x="128.66" y="155.067" transform="matrix(0.7183 -0.6957 0.6957 0.7183 -99.6847 144.9449)" style="fill:#D1D3D4;" width="1" height="81.026"/>
				</g>
				<g>
					<polygon style="fill:#D1D3D4;" points="86.887,368.186 78.728,309.264 79.196,309.176 164.3,293.121 164.485,294.103
						79.85,310.07 87.877,368.05 					"/>
				</g>
				<g>
					<polygon style="fill:#D1D3D4;" points="177.055,323.662 79.049,310.139 57.289,287.497 58.009,286.804 79.529,309.195
						177.191,322.672 					"/>
				</g>
				<g>

						<rect x="126.691" y="260.322" transform="matrix(0.8711 -0.4912 0.4912 0.8711 -109.8944 103.0197)" style="fill:#D1D3D4;" width="29.16" height="1"/>
				</g>
				<g>
					<polygon style="fill:#D1D3D4;" points="204.746,424.876 163.227,421.034 246.525,344.271 235.469,370.891 234.545,370.508
						243.855,348.091 165.559,420.245 204.838,423.88 					"/>
				</g>
				<g>
					<polygon style="fill:#D1D3D4;" points="191.634,360.897 197.464,330.771 198.446,330.96 192.944,359.385 235.378,344.72
						235.704,345.665 					"/>
				</g>
				<g>
					<polygon style="fill:#D1D3D4;" points="164.408,422.191 158.602,405.689 159.546,405.356 164.377,419.088 174.729,387.633
						175.679,387.945 					"/>
				</g>
				<g>

						<rect x="180.271" y="360.856" transform="matrix(0.9796 -0.2009 0.2009 0.9796 -68.8025 44.8076)" style="fill:#D1D3D4;" width="12.141" height="1.001"/>
				</g>
			</g>
			<g>
				<circle style="fill:#ffffff00;" cx="166.767" cy="52" r="2.375"/>
				<path style="fill:#D1D3D4;" d="M166.768,54.875c-1.585,0-2.875-1.29-2.875-2.875s1.29-2.875,2.875-2.875
					c1.585,0,2.875,1.29,2.875,2.875S168.352,54.875,166.768,54.875z M166.768,50.125c-1.034,0-1.875,0.841-1.875,1.875
					s0.841,1.875,1.875,1.875s1.875-0.841,1.875-1.875S167.802,50.125,166.768,50.125z"/>
			</g>
			<g>
				<circle style="fill:#ffffff00;" cx="107.496" cy="64.593" r="2.375"/>
				<path style="fill:#D1D3D4;" d="M107.496,67.468c-1.585,0-2.875-1.29-2.875-2.875c0-1.585,1.29-2.875,2.875-2.875
					c1.585,0,2.875,1.29,2.875,2.875C110.371,66.178,109.081,67.468,107.496,67.468z M107.496,62.718
					c-1.034,0-1.875,0.841-1.875,1.875c0,1.034,0.841,1.875,1.875,1.875s1.875-0.841,1.875-1.875
					C109.371,63.559,108.53,62.718,107.496,62.718z"/>
			</g>
			<g>
				<circle style="fill:#ffffff00;" cx="218.316" cy="42.667" r="2.375"/>
				<path style="fill:#D1D3D4;" d="M218.316,45.542c-1.585,0-2.875-1.29-2.875-2.875c0-1.585,1.29-2.875,2.875-2.875
					c1.585,0,2.875,1.29,2.875,2.875C221.191,44.252,219.901,45.542,218.316,45.542z M218.316,40.792
					c-1.034,0-1.875,0.841-1.875,1.875s0.841,1.875,1.875,1.875s1.875-0.841,1.875-1.875S219.351,40.792,218.316,40.792z"/>
			</g>
			<g>
				<circle style="fill:#ffffff00;" cx="59.274" cy="158.493" r="2.375"/>
				<path style="fill:#D1D3D4;" d="M59.274,161.368c-1.585,0-2.875-1.29-2.875-2.875c0-1.586,1.29-2.875,2.875-2.875
					c1.586,0,2.875,1.289,2.875,2.875C62.149,160.078,60.859,161.368,59.274,161.368z M59.274,156.618
					c-1.034,0-1.875,0.841-1.875,1.875c0,1.034,0.841,1.875,1.875,1.875c1.034,0,1.875-0.841,1.875-1.875
					C61.149,157.459,60.308,156.618,59.274,156.618z"/>
			</g>
			<g>
				<circle style="fill:#ffffff00;" cx="82.221" cy="161.582" r="2.375"/>
				<path style="fill:#D1D3D4;" d="M82.221,164.457c-1.586,0-2.875-1.29-2.875-2.875c0-1.585,1.289-2.875,2.875-2.875
					c1.585,0,2.875,1.29,2.875,2.875C85.096,163.167,83.807,164.457,82.221,164.457z M82.221,159.707
					c-1.034,0-1.875,0.841-1.875,1.875s0.841,1.875,1.875,1.875s1.875-0.841,1.875-1.875S83.255,159.707,82.221,159.707z"/>
			</g>
			<g>
				<circle style="fill:#ffffff00;" cx="65.659" cy="171.812" r="2.375"/>
				<path style="fill:#D1D3D4;" d="M65.659,174.686c-1.586,0-2.875-1.289-2.875-2.875c0-1.585,1.29-2.875,2.875-2.875
					c1.585,0,2.875,1.29,2.875,2.875C68.534,173.397,67.244,174.686,65.659,174.686z M65.659,169.936
					c-1.034,0-1.875,0.841-1.875,1.875c0,1.034,0.841,1.875,1.875,1.875c1.034,0,1.875-0.841,1.875-1.875
					C67.534,170.778,66.692,169.936,65.659,169.936z"/>
			</g>
			<g>
				<circle style="fill:#ffffff00;" cx="72.664" cy="323.167" r="2.375"/>
				<path style="fill:#D1D3D4;" d="M72.664,326.042c-1.585,0-2.875-1.29-2.875-2.875c0-1.585,1.29-2.875,2.875-2.875
					c1.585,0,2.875,1.29,2.875,2.875C75.539,324.752,74.249,326.042,72.664,326.042z M72.664,321.292
					c-1.034,0-1.875,0.841-1.875,1.875c0,1.034,0.841,1.875,1.875,1.875c1.034,0,1.875-0.841,1.875-1.875
					C74.539,322.133,73.698,321.292,72.664,321.292z"/>
			</g>
			<g>
				<circle style="fill:#ffffff00;" cx="147.496" cy="287.625" r="2.375"/>
				<path style="fill:#D1D3D4;" d="M147.496,290.5c-1.585,0-2.875-1.29-2.875-2.875s1.29-2.875,2.875-2.875s2.875,1.29,2.875,2.875
					S149.081,290.5,147.496,290.5z M147.496,285.75c-1.034,0-1.875,0.841-1.875,1.875s0.841,1.875,1.875,1.875
					s1.875-0.841,1.875-1.875S148.53,285.75,147.496,285.75z"/>
			</g>
			<g>
				<circle style="fill:#ffffff00;" cx="117.871" cy="417.64" r="2.375"/>
				<path style="fill:#D1D3D4;" d="M117.871,420.515c-1.585,0-2.875-1.29-2.875-2.875c0-1.585,1.29-2.875,2.875-2.875
					c1.585,0,2.875,1.29,2.875,2.875C120.746,419.225,119.456,420.515,117.871,420.515z M117.871,415.765
					c-1.034,0-1.875,0.841-1.875,1.875c0,1.034,0.841,1.875,1.875,1.875s1.875-0.841,1.875-1.875
					C119.746,416.605,118.905,415.765,117.871,415.765z"/>
			</g>
			<g>
				<circle style="fill:#ffffff00;" cx="192.289" cy="433.015" r="2.375"/>
				<path style="fill:#D1D3D4;" d="M192.289,435.89c-1.585,0-2.875-1.29-2.875-2.875c0-1.585,1.29-2.875,2.875-2.875
					c1.585,0,2.875,1.29,2.875,2.875C195.164,434.6,193.874,435.89,192.289,435.89z M192.289,431.14
					c-1.034,0-1.875,0.841-1.875,1.875c0,1.034,0.841,1.875,1.875,1.875c1.034,0,1.875-0.841,1.875-1.875
					C194.164,431.98,193.323,431.14,192.289,431.14z"/>
			</g>
			<g>
				<circle style="fill:#ffffff00;" cx="180.393" cy="444.64" r="2.375"/>
				<path style="fill:#D1D3D4;" d="M180.394,447.515c-1.585,0-2.875-1.29-2.875-2.875c0-1.585,1.29-2.875,2.875-2.875
					c1.585,0,2.875,1.29,2.875,2.875C183.269,446.225,181.978,447.515,180.394,447.515z M180.394,442.765
					c-1.034,0-1.875,0.841-1.875,1.875c0,1.034,0.841,1.875,1.875,1.875c1.034,0,1.875-0.841,1.875-1.875
					C182.269,443.605,181.428,442.765,180.394,442.765z"/>
			</g>
			<g>
				<circle style="fill:#ffffff00;" cx="202.227" cy="438.64" r="2.375"/>
				<path style="fill:#D1D3D4;" d="M202.227,441.515c-1.585,0-2.875-1.29-2.875-2.875c0-1.585,1.29-2.875,2.875-2.875
					c1.585,0,2.875,1.29,2.875,2.875C205.102,440.225,203.812,441.515,202.227,441.515z M202.227,436.765
					c-1.034,0-1.875,0.841-1.875,1.875c0,1.034,0.841,1.875,1.875,1.875c1.034,0,1.875-0.841,1.875-1.875
					C204.102,437.605,203.262,436.765,202.227,436.765z"/>
			</g>
			<g>
				<circle style="fill:#ffffff00;" cx="182.185" cy="338.746" r="2.375"/>
				<path style="fill:#D1D3D4;" d="M182.185,341.621c-1.585,0-2.875-1.29-2.875-2.875s1.29-2.875,2.875-2.875
					c1.585,0,2.875,1.29,2.875,2.875S183.769,341.621,182.185,341.621z M182.185,336.871c-1.034,0-1.875,0.841-1.875,1.875
					c0,1.034,0.841,1.875,1.875,1.875c1.034,0,1.875-0.841,1.875-1.875C184.06,337.712,183.219,336.871,182.185,336.871z"/>
			</g>
			<g>
				<circle style="fill:#ffffff00;" cx="125.496" cy="290" r="2.375"/>
				<path style="fill:#D1D3D4;" d="M125.496,292.875c-1.585,0-2.875-1.29-2.875-2.875s1.29-2.875,2.875-2.875
					c1.585,0,2.875,1.29,2.875,2.875S127.081,292.875,125.496,292.875z M125.496,288.125c-1.034,0-1.875,0.841-1.875,1.875
					s0.841,1.875,1.875,1.875s1.875-0.841,1.875-1.875S126.53,288.125,125.496,288.125z"/>
			</g>
			<g>
				<circle style="fill:#ffffff00;" cx="234.286" cy="142.784" r="2.375"/>
				<path style="fill:#D1D3D4;" d="M234.286,145.659c-1.585,0-2.875-1.29-2.875-2.875c0-1.586,1.29-2.875,2.875-2.875
					c1.585,0,2.875,1.289,2.875,2.875C237.161,144.369,235.871,145.659,234.286,145.659z M234.286,140.909
					c-1.034,0-1.875,0.841-1.875,1.875c0,1.034,0.841,1.875,1.875,1.875c1.034,0,1.875-0.841,1.875-1.875
					C236.161,141.75,235.32,140.909,234.286,140.909z"/>
			</g>
			<g>
				<circle style="fill:#ffffff00;" cx="133.871" cy="222.307" r="2.375"/>
				<path style="fill:#D1D3D4;" d="M133.871,225.182c-1.585,0-2.875-1.289-2.875-2.875c0-1.585,1.29-2.875,2.875-2.875
					c1.585,0,2.875,1.29,2.875,2.875C136.746,223.892,135.456,225.182,133.871,225.182z M133.871,220.432
					c-1.034,0-1.875,0.841-1.875,1.875c0,1.034,0.841,1.875,1.875,1.875c1.034,0,1.875-0.841,1.875-1.875
					C135.746,221.273,134.905,220.432,133.871,220.432z"/>
			</g>
			<g>
				<circle style="fill:#ffffff00;" cx="111.871" cy="77.861" r="2.375"/>
				<path style="fill:#D1D3D4;" d="M111.871,80.736c-1.585,0-2.875-1.29-2.875-2.875c0-1.585,1.29-2.875,2.875-2.875
					c1.585,0,2.875,1.29,2.875,2.875C114.746,79.446,113.456,80.736,111.871,80.736z M111.871,75.986
					c-1.034,0-1.875,0.841-1.875,1.875s0.841,1.875,1.875,1.875s1.875-0.841,1.875-1.875S112.905,75.986,111.871,75.986z"/>
			</g>
			<g>
				<circle style="fill:#ffffff00;" cx="165.289" cy="69.352" r="2.375"/>
				<path style="fill:#D1D3D4;" d="M165.289,72.227c-1.585,0-2.875-1.29-2.875-2.875c0-1.585,1.29-2.875,2.875-2.875
					c1.585,0,2.875,1.29,2.875,2.875C168.164,70.938,166.874,72.227,165.289,72.227z M165.289,67.477
					c-1.034,0-1.875,0.841-1.875,1.875c0,1.034,0.841,1.875,1.875,1.875c1.034,0,1.875-0.841,1.875-1.875
					C167.164,68.318,166.323,67.477,165.289,67.477z"/>
			</g>
			<g>
				<circle style="fill:#ffffff00;" cx="70.289" cy="100.686" r="2.375"/>
				<path style="fill:#D1D3D4;" d="M70.289,103.561c-1.585,0-2.875-1.289-2.875-2.875c0-1.585,1.29-2.875,2.875-2.875
					c1.585,0,2.875,1.29,2.875,2.875C73.164,102.271,71.874,103.561,70.289,103.561z M70.289,98.811
					c-1.034,0-1.875,0.841-1.875,1.875c0,1.034,0.841,1.875,1.875,1.875c1.034,0,1.875-0.841,1.875-1.875
					C72.164,99.652,71.323,98.811,70.289,98.811z"/>
			</g>
			<g>
				<circle style="fill:#ffffff00;" cx="79.289" cy="309.667" r="2.375"/>
				<path style="fill:#D1D3D4;" d="M79.289,312.542c-1.585,0-2.875-1.29-2.875-2.875c0-1.585,1.29-2.875,2.875-2.875
					c1.585,0,2.875,1.29,2.875,2.875C82.164,311.252,80.874,312.542,79.289,312.542z M79.289,307.792
					c-1.034,0-1.875,0.841-1.875,1.875c0,1.034,0.841,1.875,1.875,1.875c1.034,0,1.875-0.841,1.875-1.875
					C81.164,308.633,80.323,307.792,79.289,307.792z"/>
			</g>
			<g>
				<circle style="fill:#ffffff00;" cx="164.393" cy="420.64" r="2.375"/>
				<path style="fill:#D1D3D4;" d="M164.393,423.515c-1.585,0-2.875-1.29-2.875-2.875c0-1.585,1.29-2.875,2.875-2.875
					c1.585,0,2.875,1.29,2.875,2.875C167.268,422.225,165.977,423.515,164.393,423.515z M164.393,418.765
					c-1.034,0-1.875,0.841-1.875,1.875c0,1.034,0.841,1.875,1.875,1.875s1.875-0.841,1.875-1.875
					C166.268,419.605,165.427,418.765,164.393,418.765z"/>
			</g>
			<g>
				<circle style="fill:#ffffff00;" cx="192.289" cy="360.141" r="2.375"/>
				<path style="fill:#D1D3D4;" d="M192.289,363.016c-1.585,0-2.875-1.29-2.875-2.875c0-1.585,1.29-2.875,2.875-2.875
					c1.585,0,2.875,1.29,2.875,2.875C195.164,361.726,193.874,363.016,192.289,363.016z M192.289,358.266
					c-1.034,0-1.875,0.841-1.875,1.875c0,1.034,0.841,1.875,1.875,1.875c1.034,0,1.875-0.841,1.875-1.875
					C194.164,359.106,193.323,358.266,192.289,358.266z"/>
			</g>
			<g>
				<circle style="fill:#ffffff00;" cx="209.956" cy="142.784" r="2.375"/>
				<path style="fill:#D1D3D4;" d="M209.956,145.659c-1.585,0-2.875-1.29-2.875-2.875c0-1.586,1.29-2.875,2.875-2.875
					c1.585,0,2.875,1.289,2.875,2.875C212.831,144.369,211.541,145.659,209.956,145.659z M209.956,140.909
					c-1.034,0-1.875,0.841-1.875,1.875c0,1.034,0.841,1.875,1.875,1.875c1.034,0,1.875-0.841,1.875-1.875
					C211.831,141.75,210.99,140.909,209.956,140.909z"/>
			</g>
		</g>
	</g>
</g>
<g id="OBJECTS">
	<g>
		<rect x="222.311" y="64.593" style="fill:#E6E7E8;" width="55.378" height="48.456"/>
		<rect x="222.311" y="57.671" style="fill:#3A4D57;" width="55.378" height="6.922"/>
		<g>
			<rect x="226.637" y="69.352" style="fill:#FBBE68;" width="23.363" height="12.402"/>
			<rect x="226.637" y="86.369" style="fill:#ff6a00e9;" width="46.726" height="3.894"/>
			<rect x="226.637" y="94.878" style="fill:#ff6a00e9;" width="46.726" height="3.894"/>
			<rect x="226.637" y="103.387" style="fill:#ff6a00e9;" width="23.363" height="3.894"/>
			<rect x="253.894" y="77.861" style="fill:#ff6a00e9;" width="19.469" height="3.894"/>
			<rect x="253.894" y="69.352" style="fill:#ff9900e9;" width="19.469" height="3.894"/>
		</g>
		<polygon style="fill:#E6E7E8;" points="275.048,59.878 274.436,59.266 273.146,60.556 271.857,59.266 271.245,59.878
			272.535,61.167 271.245,62.457 271.857,63.069 273.146,61.779 274.436,63.069 275.048,62.457 273.758,61.167 		"/>
	</g>
	<g>
		<g>
			<g>
				<polygon style="fill:#ff6a00e9;" points="110.284,354.612 106.284,354.612 106.284,339.121 121.776,339.121 121.776,343.121
					110.284,343.121 				"/>
			</g>
			<g>
				<polygon style="fill:#ff6a00e9;" points="160.879,354.612 156.879,354.612 156.879,343.121 145.388,343.121 145.388,339.121
					160.879,339.121 				"/>
			</g>
			<g>
				<polygon style="fill:#ff6a00e9;" points="121.776,393.716 106.284,393.716 106.284,378.224 110.284,378.224 110.284,389.716
					121.776,389.716 				"/>
			</g>
			<g>
				<polygon style="fill:#ff6a00e9;" points="160.879,393.716 145.388,393.716 145.388,389.716 156.879,389.716 156.879,378.224
					160.879,378.224 				"/>
			</g>
		</g>

			<ellipse transform="matrix(0.7071 -0.7071 0.7071 0.7071 -219.9715 201.778)" style="fill:#ff9900e9;" cx="133.582" cy="366.418" rx="20.238" ry="20.238"/>

			<ellipse transform="matrix(0.2314 -0.9729 0.9729 0.2314 -253.8031 411.5765)" style="fill:#ffffff00;" cx="133.582" cy="366.418" rx="16.865" ry="16.865"/>

			<ellipse transform="matrix(0.2311 -0.9729 0.9729 0.2311 -253.7875 411.7102)" style="fill:#FBBE68;" cx="133.582" cy="366.418" rx="13.492" ry="13.492"/>
		<g>
			<g>
				<rect x="132.082" y="362.571" style="fill:#ffffff00;" width="3" height="7.694"/>
			</g>
			<g>
				<rect x="129.734" y="364.918" style="fill:#ffffff00;" width="7.695" height="3"/>
			</g>
		</g>
		<g>
			<g>

					<rect x="137.233" y="351.8" transform="matrix(0.7071 -0.7071 0.7071 0.7071 -207.3532 207.0047)" style="fill:#3A4D57;" width="17.935" height="4"/>
			</g>
			<g>
				<polygon style="fill:#3A4D57;" points="147.469,362.141 137.859,362.141 137.859,352.531 141.859,352.531 141.859,358.141
					147.469,358.141 				"/>
			</g>
		</g>
	</g>
	<g>
		<g>
			<path style="fill:#FBBE68;" d="M366.418,168.478c-19.241,0-34.896-15.654-34.896-34.896s15.654-34.896,34.896-34.896
				c19.242,0,34.897,15.654,34.897,34.896S385.66,168.478,366.418,168.478z M366.418,102.686c-17.036,0-30.896,13.86-30.896,30.896
				c0,17.036,13.859,30.896,30.896,30.896c17.036,0,30.897-13.86,30.897-30.896C397.315,116.546,383.454,102.686,366.418,102.686z"
				/>
		</g>
		<circle style="fill:#ff9900e9;" cx="366.418" cy="133.582" r="28"/>
		<circle style="fill:#E6E7E8;" cx="366.418" cy="133.582" r="8"/>
		<g>
			<rect x="366.418" y="131.582" style="fill:#3A4D57;" width="12" height="4"/>
		</g>
		<g>
			<rect x="364.418" y="117.582" style="fill:#3A4D57;" width="4" height="16"/>
		</g>
		<rect x="364.418" y="109.582" style="fill:#E6E7E8;" width="4" height="4"/>

			<rect x="386.418" y="131.582" transform="matrix(-1.836970e-16 1 -1 -1.836970e-16 522 -254.8362)" style="fill:#E6E7E8;" width="4" height="4"/>

			<rect x="342.418" y="131.582" transform="matrix(6.123234e-17 -1 1 6.123234e-17 210.8362 478)" style="fill:#E6E7E8;" width="4" height="4"/>

			<rect x="364.418" y="153.582" transform="matrix(-1 -1.224647e-16 1.224647e-16 -1 732.8362 311.1638)" style="fill:#E6E7E8;" width="4" height="4"/>

			<rect x="348.862" y="116.026" transform="matrix(0.7071 -0.7071 0.7071 0.7071 19.3084 282.6656)" style="fill:#E6E7E8;" width="4" height="4"/>

			<rect x="379.975" y="116.026" transform="matrix(0.7071 0.7071 -0.7071 0.7071 195.3344 -235.5279)" style="fill:#E6E7E8;" width="4" height="4"/>

			<rect x="348.862" y="147.138" transform="matrix(-0.7071 -0.7071 0.7071 -0.7071 493.5019 502.6916)" style="fill:#E6E7E8;" width="4" height="4"/>

			<rect x="379.975" y="147.138" transform="matrix(-0.7071 0.7071 -0.7071 -0.7071 757.5279 -15.5019)" style="fill:#E6E7E8;" width="4" height="4"/>
		<circle style="fill:#FBBE68;" cx="366.418" cy="133.582" r="4"/>
	</g>
	<g>
		<rect x="56.36" y="224.682" style="fill:#E6E7E8;" width="58" height="50.75"/>
		<rect x="56.36" y="224.682" style="fill:#ff6a00e9;" width="58" height="12.234"/>
		<g>
			<rect x="83.36" y="220.674" style="fill:#3A4D57;" width="4" height="8.017"/>
		</g>
		<g>
			<rect x="94.235" y="220.674" style="fill:#3A4D57;" width="4" height="8.017"/>
		</g>
		<g>
			<rect x="105.11" y="220.674" style="fill:#3A4D57;" width="4" height="8.017"/>
		</g>
		<g>
			<rect x="72.485" y="220.674" style="fill:#3A4D57;" width="4" height="8.017"/>
		</g>
		<g>
			<rect x="61.61" y="220.674" style="fill:#3A4D57;" width="4" height="8.017"/>
		</g>
		<g>
			<rect x="61.797" y="240.693" style="fill:#FBBE68;" width="7.25" height="7.25"/>
			<rect x="75.089" y="240.693" style="fill:#ff9900e9;" width="7.25" height="7.25"/>
			<rect x="88.381" y="240.693" style="fill:#ff9900e9;" width="7.25" height="7.25"/>
			<rect x="101.672" y="240.693" style="fill:#ff9900e9;" width="7.25" height="7.25"/>
		</g>
		<g>
			<rect x="61.797" y="262.896" style="fill:#FBBE68;" width="7.25" height="7.25"/>
			<rect x="75.089" y="262.896" style="fill:#ff9900e9;" width="7.25" height="7.25"/>
			<rect x="88.381" y="262.896" style="fill:#ff9900e9;" width="7.25" height="7.25"/>
			<rect x="101.672" y="262.896" style="fill:#ff9900e9;" width="7.25" height="7.25"/>
		</g>
		<g>
			<rect x="61.797" y="251.794" style="fill:#FBBE68;" width="7.25" height="7.25"/>
			<rect x="75.089" y="251.794" style="fill:#ff9900e9;" width="7.25" height="7.25"/>
			<rect x="88.381" y="251.794" style="fill:#ff9900e9;" width="7.25" height="7.25"/>
			<rect x="101.672" y="251.794" style="fill:#ff9900e9;" width="7.25" height="7.25"/>
		</g>
	</g>
	<g>
		<g>
			<path style="fill:#3A4D57;" d="M394.418,350.418h-4v-8h-8v-4c0-2.209-1.791-4-4-4c-2.209,0-4,1.791-4,4v4h-8v24h24v-8h4
				c2.209,0,4-1.791,4-4C398.418,352.209,396.627,350.418,394.418,350.418z"/>
			<path style="fill:#FBBE68;" d="M370.418,350.418h-4v-8h-8v-4c0-2.209-1.791-4-4-4c-2.209,0-4,1.791-4,4v4h-8v8h4
				c2.209,0,4,1.791,4,4c0,2.209-1.791,4-4,4h-4v8h24v-8h4c2.209,0,4-1.791,4-4C374.418,352.209,372.627,350.418,370.418,350.418z"
				/>
			<path style="fill:#ff9900e9;" d="M358.418,366.418v-4c0-2.209-1.791-4-4-4c-2.209,0-4,1.791-4,4v4h-8v8h-4c-2.209,0-4,1.791-4,4
				c0,2.209,1.791,4,4,4h4v8h8v4c0,2.209,1.791,4,4,4c2.209,0,4-1.791,4-4v-4h8v-24H358.418z"/>
			<path style="fill:#ff6a00e9;" d="M386.418,374.418h4v-8h-8v-4c0-2.209-1.791-4-4-4c-2.209,0-4,1.791-4,4v4h-8v8h-4
				c-2.209,0-4,1.791-4,4c0,2.209,1.791,4,4,4h4v8h8v4c0,2.209,1.791,4,4,4c2.209,0,4-1.791,4-4v-4h8v-8h-4c-2.209,0-4-1.791-4-4
				C382.418,376.209,384.209,374.418,386.418,374.418z"/>
		</g>
	</g>
	<g>
		<path style="fill:#FBBE68;" d="M250,414.64L250,414.64c-8.837,0-16-7.163-16-16v-16h32v16C266,407.477,258.837,414.64,250,414.64z
			"/>
		<path style="fill:#ff6a00e9;" d="M250,410.64c-6.617,0-12-5.383-12-12v-8h24v8C262,405.257,256.617,410.64,250,410.64z"/>
		<path style="fill:#FBBE68;" d="M250,414.64L250,414.64c-8.837,0-16,7.163-16,16v16h32v-16C266,421.804,258.837,414.64,250,414.64z
			"/>
		<rect x="238" y="430.64" style="fill:#ff6a00e9;" width="24" height="8"/>
		<rect x="248" y="408.64" style="fill:#ff6a00e9;" width="4" height="22"/>
		<rect x="234" y="382.64" style="fill:#3A4D57;" width="32" height="4"/>
		<rect x="234" y="442.64" style="fill:#3A4D57;" width="32" height="4"/>
		<g>
			<g>
				<rect x="270" y="390.64" style="fill:#ff9900e9;" width="4" height="24"/>
			</g>
			<g>
				<polygon style="fill:#ff9900e9;" points="272,417.468 264.586,410.054 267.414,407.226 272,411.811 276.586,407.226
					279.414,410.054 				"/>
			</g>
		</g>
		<g>
			<g>
				<rect x="226" y="414.64" style="fill:#ff9900e9;" width="4" height="24"/>
			</g>
			<g>
				<polygon style="fill:#ff9900e9;" points="232.586,422.054 228,417.468 223.414,422.054 220.586,419.226 228,411.811
					235.414,419.226 				"/>
			</g>
		</g>
	</g>
	<g>
		<path style="fill:#FBBE68;" d="M434.64,282h-40v-64h40c4.418,0,8,3.582,8,8v48C442.64,278.418,439.058,282,434.64,282z"/>
		<polygon style="fill:#ff6a00e9;" points="406.64,290 402.64,286 398.64,290 398.64,274 406.64,274 		"/>
		<path style="fill:#ff9900e9;" d="M430.64,282h-40v-64h40c4.418,0,8,3.582,8,8v48C438.64,278.418,435.058,282,430.64,282z"/>
		<rect x="390.64" y="218" style="fill:#3A4D57;" width="8" height="64"/>
		<rect x="403.88" y="226.614" style="fill:#E6E7E8;" width="28.375" height="15.386"/>
	</g>
	<g>

		<g>

		</g>
	</g>
	<g>
		<g>
			<rect x="106.582" y="156.805" style="fill:#3A4D57;" width="54" height="3.375"/>
			<rect x="106.582" y="133.18" style="fill:#3A4D57;" width="8.438" height="20.25"/>
			<rect x="121.769" y="126.43" style="fill:#FBBE68;" width="8.438" height="27"/>
			<rect x="136.957" y="119.68" style="fill:#ff9900e9;" width="8.438" height="33.75"/>
			<rect x="152.144" y="106.18" style="fill:#ff6a00e9;" width="8.438" height="47.25"/>
		</g>
		<g>
			<g>

					<rect x="114.056" y="109.97" transform="matrix(0.7071 -0.7071 0.7071 0.7071 -42.2735 121.8823)" style="fill:#3A4D57;" width="23.865" height="4"/>
			</g>
			<g>
				<polygon style="fill:#3A4D57;" points="136.426,113.657 132.426,113.657 132.426,105.532 124.301,105.532 124.301,101.532
					136.426,101.532 				"/>
			</g>
		</g>
	</g>
</g>

</svg>
